<svg xmlns="http://www.w3.org/2000/svg" viewBox="0 0 382.31 172.31"><defs><style>.cls-1{isolation:isolate;}.cls-2,.cls-6{fill:#f1f9fe;}.cls-3{fill:#e89c29;}.cls-4{fill:#e07226;opacity:0.3;}.cls-4,.cls-5{mix-blend-mode:multiply;}.cls-5{fill:#f2f2f2;}.cls-6{mix-blend-mode:screen;opacity:0.2;}.cls-7{fill:#faf6cb;}.cls-8{fill:#fffbd4;}.cls-9{fill:#f9f19a;}.cls-10{fill:none;stroke:#e89c29;stroke-linejoin:round;stroke-width:1.5px;}</style></defs><g class="cls-1"><g id="Calque_2" data-name="Calque 2"><g id="VECTORISE"><g id="Alcool"><g id="Bierre"><g id="Verre_de_bierre" data-name="Verre de bierre"><path class="cls-2" d="M82.77,127c6.63-38.83,11.6-67.91,11.6-67.91,2.48.19,3.06-4.48-.44-4.48L59.25,48.68,24.58,42.76c-3.11-1.15-4.47,3.36-1.91,4.08,0,0-5,29.08-11.6,67.91S-1.72,146.13.82,155.27C5.55,167,70.55,178.1,79,168.63,84.41,160.85,76.13,165.84,82.77,127Z"/><path class="cls-3" d="M92.5,58.77l0-.3L24.59,46.86C21.39,63.67,12,128,6.61,141.33c0,0-1.39,9.49,34.16,15.56s37.38-3.34,37.38-3.34C77.44,139.53,90,75.34,92.5,58.77Z"/><path class="cls-4" d="M80.9,126.68c0-.42,11.66-67.85,11.62-68.21l-6.69-1.15C80.12,81,80.69,113.82,70.3,138c-15.89,20.14-50.54,15.32-60.27-8.4a105.07,105.07,0,0,1-3.42,11.74s-1.39,9.49,34.16,15.56,37.38-3.34,37.38-3.34C78.09,148.15,78.64,139.93,80.9,126.68Z"/><path class="cls-5" d="M82.77,127c6.63-38.83,11.6-67.91,11.6-67.91a2,2,0,0,0,2-1.85c.36-3.2-3.48-2.52-5.34-3.12C83.39,73.9,81.39,95.4,77.88,116.19c-.86,13.21-.72,28.52-10.2,39C55.94,169,36,167.15,21.4,159c-6.68-3.86-14.62-5.6-18.95-12.7-13.71,17.35,34.6,22.55,36.18,23.15,0,0,34.93,7,40.35-.79S76.13,165.84,82.77,127Z"/><path class="cls-6" d="M21.93,130.44c.36,2.48.48,5.19,2.33,7L40.51,42.28l-5-.87C35,45.6,19.35,129.29,21.93,130.44Z"/><path class="cls-6" d="M34.67,126.88c.43,2,.85,4.18,2.59,5.43A197.69,197.69,0,0,0,49.55,60.39l-5-.86C44.22,63,32.08,125.57,34.67,126.88Z"/><path class="cls-7" d="M89.75,74.89c0-.37,2.81-16.06,2.77-16.42L24.59,46.86l-2.8,16.42Z"/></g><g id="Mousse"><path class="cls-8" d="M17.86,52.81c-2.51,10.45,7.69,20.34,18,17.53,4.59,7.25,15.32,8.79,21.81,3.18C64.21,78,73.65,73.3,74,65.41a10.62,10.62,0,0,0,7.47-4.67c9.44,4.83,20.77-4.47,17.94-14.66C119,39.12,106.63,9.76,88,18.91c-4.13-15.52-27-17.54-33.82-3C43.73,6.06,25.32,12.72,23.75,27,7,23.6,1.3,48.69,17.86,52.81Zm43.06,4.7c-4.36,1.82-7.34,7.23-5.52,11.59-4.94-11.38,13-18.88,17.65-7.37C71.23,57.37,65.28,55.69,60.92,57.51ZM83.23,37.25a10.92,10.92,0,0,1,14.19,6.09c-5-11.63-24.66-3.78-20.28,8.09A10.92,10.92,0,0,1,83.23,37.25Z"/><path class="cls-8" d="M72.75,56C61,44.89,45.87,61.53,55.27,72.85c-1.84,4-.84,7.6,1.27,11.53-4.66,9,10.82,11.43,7,1.21,4.38-1.92,7.91-6.75,5.08-11.42C75,71.56,77.9,61.14,72.75,56Z"/><path class="cls-8" d="M67,9.47a6.16,6.16,0,0,0-6.08.54c-3.62-4.47-9.9-3.85-13.8-.4C43.62,1.33,30.82-3.75,23.56,3.43c-5.22,5.7-3.76,18.18,3.91,20.43C22.28,39.56,45.05,45.4,47.74,27c4.55-.3,9.68-.94,12.25-5.42.82-1.24,1.24-.25,3-.36C70.35,21.63,74.85,12.69,67,9.47Z"/></g></g><g id="DrinX"><path class="cls-3" d="M156.5,42.11a28.63,28.63,0,0,1,14.05,3.23,25.46,25.46,0,0,1,9.25,8.57,29.62,29.62,0,0,1,4.36,12.24,40.53,40.53,0,0,1-.69,14.24,51.31,51.31,0,0,1-5.72,14.54A53.35,53.35,0,0,1,167,108.1a60.07,60.07,0,0,1-16,10.09,71.12,71.12,0,0,1-21.25,5.38,9.19,9.19,0,0,1-.74,2.55,1.78,1.78,0,0,1-1.71,1.17,8.66,8.66,0,0,1-2.84-.93,24.92,24.92,0,0,1-4-2.3,16.21,16.21,0,0,1-6.56-1.17,15,15,0,0,1-4.16-2.6,5.79,5.79,0,0,1-1.81-2.54c-.2-.75,0-1.13.48-1.13a6.4,6.4,0,0,1,2,.25,11.09,11.09,0,0,1,1.52.58,9.57,9.57,0,0,0,1.67.59,9.78,9.78,0,0,0,2.39.24,1.2,1.2,0,0,0,.35,0,.87.87,0,0,1,.34,0c.39-1,1.19-2.92,2.4-5.63s2.66-5.91,4.35-9.6S127,95.19,129,90.72s4-9,5.87-13.61S138.53,68,140.2,63.5s3-8.6,4.06-12.38a72.3,72.3,0,0,0-11.46,7.1,67.88,67.88,0,0,0-10.13,9.3,50.51,50.51,0,0,0-7.25,10.57,24.08,24.08,0,0,0-2.79,10.82,12.36,12.36,0,0,0,.35,3.33,9.7,9.7,0,0,0,.68,1.81,5.39,5.39,0,0,0,.69,1,1.43,1.43,0,0,1,.34,1c0,.91-.62,1.21-1.86.88a9.94,9.94,0,0,1-4.06-2.59,20,20,0,0,1-4-5.93,21.66,21.66,0,0,1-1.81-9.3,14.08,14.08,0,0,1,1.52-5.73,35.62,35.62,0,0,1,4.31-6.85,61.79,61.79,0,0,1,6.7-7.2,66.09,66.09,0,0,1,8.72-6.75A73.22,73.22,0,0,1,134.47,47a56.78,56.78,0,0,1,11.45-3.72c.07-.53.12-1,.15-1.57s.05-1,.05-1.57a1.75,1.75,0,0,1,1-1.86,4.07,4.07,0,0,1,2.5,0,10.58,10.58,0,0,1,3.08,1.47,15.2,15.2,0,0,1,2.79,2.35Zm-22.42,72.26a56.45,56.45,0,0,0,13.26-6.66,69.36,69.36,0,0,0,11.21-9.4,71.09,71.09,0,0,0,8.72-11,60.46,60.46,0,0,0,5.82-11.51,39.67,39.67,0,0,0,2.5-10.92,20.73,20.73,0,0,0-1.17-9.2,13,13,0,0,0-5.24-6.31Q165.51,47,159.44,47h0q-.6,1.86-2.4,6.61t-4.26,11.06q-2.44,6.31-5.19,13.56l-5.34,14.1q-2.59,6.85-4.79,12.68T134.08,114.37Z"/><path class="cls-3" d="M222.1,90.58c.52-.79.94-1.08,1.27-.88a1.86,1.86,0,0,1,.74,1.17,6.2,6.2,0,0,1,.19,1.91,3,3,0,0,1-.24,1.32q-1,1.47-2.65,4.41c-1.11,2-2.4,4.09-3.86,6.41s-3.06,4.7-4.75,7.15-3.42,4.7-5.14,6.75a36.28,36.28,0,0,1-5.19,5.14,10.15,10.15,0,0,1-4.85,2.35.79.79,0,0,0-.24,0,1.23,1.23,0,0,1-.35,0,22.79,22.79,0,0,1-2.74-.29,16.36,16.36,0,0,1-4-1.18,10.23,10.23,0,0,1-3.53-2.45,5.28,5.28,0,0,1-1.27-4.21,20.06,20.06,0,0,1,1.76-6.26c1-2.42,2.16-4.83,3.33-7.25s2.25-4.66,3.23-6.75a15.18,15.18,0,0,0,1.57-4.6,4,4,0,0,0-.88-3.09,14.87,14.87,0,0,0-3-2.69c-.91,1.44-1.81,2.74-2.69,3.92s-1.58,2.12-2.11,2.83a.5.5,0,0,1-.78.2,2.64,2.64,0,0,1-.88-.93,4.18,4.18,0,0,1-.54-1.32,1.56,1.56,0,0,1,.15-1.18,25,25,0,0,0,1.66-2.4c.59-.94,1.28-2,2.06-3.08-1.11-.78-2.22-1.63-3.33-2.54a14.38,14.38,0,0,1-4.75-7.45,15.47,15.47,0,0,1-.34-5.48,14.68,14.68,0,0,1,2.4-7,27.26,27.26,0,0,1,4.84-5.63,23.43,23.43,0,0,1,5.63-3.72,12.22,12.22,0,0,1,4.85-1.32,4.14,4.14,0,0,1,3.57,2.2q1.42,2.2.93,7.49a32.82,32.82,0,0,1-2.2,9,84.18,84.18,0,0,1-4.16,9.06,30.4,30.4,0,0,0,4.06,2.69,35.23,35.23,0,0,1,4,2.59,12.23,12.23,0,0,1,2.93,3.14,7,7,0,0,1,.93,4.4,21.21,21.21,0,0,1-1.12,4.21q-1,3-2.35,6.76c-.88,2.48-1.8,5-2.74,7.54s-1.75,4.76-2.4,6.66-.36,2.74.49,2.74,1.61-.54,2.69-1.62a39,39,0,0,0,3.57-4.21c1.31-1.73,2.7-3.68,4.17-5.87s2.92-4.41,4.35-6.66l4.16-6.51Q220.53,92.93,222.1,90.58ZM191.16,69.82a12,12,0,0,0,.39,4.45,10.08,10.08,0,0,0,1.76,3.38,68.9,68.9,0,0,0,3.77-8A26.89,26.89,0,0,0,199,62a9.71,9.71,0,0,0-.19-4.21,1.64,1.64,0,0,0-1.57-1.08c-.59,0-1.23.46-1.91,1.37a16.82,16.82,0,0,0-1.91,3.38,33.38,33.38,0,0,0-1.52,4.26A18.79,18.79,0,0,0,191.16,69.82Z"/><path class="cls-3" d="M250.78,90.48c.53-.78.93-1.08,1.23-.88a1.67,1.67,0,0,1,.59,1.17,7.54,7.54,0,0,1,0,1.91,3.26,3.26,0,0,1-.29,1.32c-.65,1-1.57,2.47-2.74,4.26s-2.55,3.77-4.11,5.93-3.25,4.35-5.05,6.6A77.12,77.12,0,0,1,235,117a39.62,39.62,0,0,1-5.43,4.7,11.35,11.35,0,0,1-4.9,2.16h-.59a21.39,21.39,0,0,1-2.74-.3,17.67,17.67,0,0,1-4-1.12,10,10,0,0,1-3.53-2.4,5.34,5.34,0,0,1-1.27-4.21,20.27,20.27,0,0,1,1.23-5q1.13-3.23,2.74-7.19c1.07-2.65,2.22-5.37,3.42-8.18s2.34-5.45,3.38-7.93,1.93-4.63,2.65-6.46a18.55,18.55,0,0,0,1.17-3.72A1.56,1.56,0,0,1,229,75.69,8.16,8.16,0,0,1,232.67,77a16.36,16.36,0,0,1,3.57,2.88A4.42,4.42,0,0,1,237.76,83a17.8,17.8,0,0,1-.78,3c-.46,1.41-1,3.07-1.71,5s-1.46,4-2.31,6.26-1.69,4.49-2.54,6.71-1.65,4.36-2.4,6.41-1.39,3.84-1.91,5.34c-.52,1.76-.36,2.64.49,2.64a5.15,5.15,0,0,0,2.84-1.42,36.71,36.71,0,0,0,3.92-3.77c1.43-1.56,2.95-3.33,4.55-5.28s3.16-4,4.7-6.07l4.45-6.07C248.5,93.81,249.74,92,250.78,90.48ZM237.57,69.82a10.38,10.38,0,0,1-3.14-.49A9.81,9.81,0,0,1,231.64,68a7.36,7.36,0,0,1-2-2.06,3.91,3.91,0,0,1-.63-2.45,10.11,10.11,0,0,1,1.42-4.06,16.41,16.41,0,0,1,3.08-3.82,19.16,19.16,0,0,1,4-2.84,8.57,8.57,0,0,1,4.06-1.12,6.45,6.45,0,0,1,4.7,1.71,5.89,5.89,0,0,1,1.57,4.85,14.33,14.33,0,0,1-1,3.57,17.66,17.66,0,0,1-2.2,3.82,13.51,13.51,0,0,1-3.19,3A6.79,6.79,0,0,1,237.57,69.82Z"/><path class="cls-3" d="M306.2,90.67c.52-.78.95-1.07,1.27-.88a1.88,1.88,0,0,1,.74,1.18,5.91,5.91,0,0,1,.19,1.91,3.09,3.09,0,0,1-.24,1.32l-2.79,4.21c-1.21,1.83-2.61,3.83-4.21,6s-3.31,4.44-5.14,6.76-3.67,4.44-5.53,6.36a43.84,43.84,0,0,1-5.53,4.9,12.64,12.64,0,0,1-5,2.4,5,5,0,0,1-2.64-.2,12.52,12.52,0,0,1-3.67-1.67,11.43,11.43,0,0,1-3.14-3,6.34,6.34,0,0,1-1.12-4.31,19.39,19.39,0,0,1,1.37-5.29q1.28-3.42,3-7.54t3.68-8.56c1.3-3,2.48-5.79,3.52-8.47-1.24,1.31-2.73,2.94-4.45,4.89s-3.56,4-5.49,6.27-3.86,4.49-5.82,6.8-3.79,4.53-5.49,6.61-3.15,4-4.35,5.68a28.41,28.41,0,0,0-2.5,4,6.77,6.77,0,0,0,.1,2,1.3,1.3,0,0,1-.49,1.37c-.39.33-1.21.36-2.45.1a12.65,12.65,0,0,1-7.24-4.65,6.42,6.42,0,0,1-1.28-4.55,17.5,17.5,0,0,1,1.18-4.7q1.08-2.94,2.64-6.46l3.33-7.44c1.18-2.61,2.27-5.13,3.28-7.54s1.88-4.65,2.6-6.71a23.59,23.59,0,0,0,1.27-5,1.56,1.56,0,0,1,1.86-1.67,8.5,8.5,0,0,1,3.77,1.28A15.06,15.06,0,0,1,265,79a4.49,4.49,0,0,1,1.47,3.19,20.77,20.77,0,0,1-.83,3.18c-.49,1.53-1.13,3.33-1.91,5.38s-1.65,4.3-2.6,6.71-1.87,4.8-2.79,7.15q1.38-1.86,3.48-4.56l4.5-5.77q2.4-3.09,5.05-6.27c1.76-2.12,3.45-4.09,5.09-5.92s3.15-3.41,4.55-4.75a17.4,17.4,0,0,1,3.57-2.79,2.18,2.18,0,0,1,.79-.39,1,1,0,0,1,.49-.1,1.92,1.92,0,0,1,.78.1,8.65,8.65,0,0,1,2.64,1A14.07,14.07,0,0,1,292,77a11.8,11.8,0,0,1,2,2.25,3.46,3.46,0,0,1,.69,2.25,19.21,19.21,0,0,1-.83,3.13Q293.08,86.87,292,90c-.76,2.12-1.6,4.4-2.55,6.85s-1.88,4.9-2.79,7.34-1.8,4.79-2.64,7-1.54,4.11-2.06,5.67-.2,2.16.59,2.16q1.56,0,4.55-3.14t6.46-7.58q3.48-4.45,6.86-9.3Z"/><path class="cls-9" d="M376,134.18c19.68-8.67-16.84,38.07-49.58-23.63-5.5,9.17-36.23,42.38-40.22,19.27,16.59-.47,25.47-19.34,33.9-32.23-10.44-21.87-13.57-91.17-43.5-38.95-1.76,3.5-5.57-9.94-2.6-12.83,34.19-31.07,47.56,5.31,55.06,35.05C336.63,64.59,346,45.92,349.3,29.37c-.21-1.39.29-2,1.52-1.73,8.61,3,14.63,10.79,10,20.65-5.72,16.13-16.1,33.27-25.29,48.52C343.44,113.28,355,136.27,376,134.18Z"/><path class="cls-10" d="M376,134.18c19.68-8.67-16.84,38.07-49.58-23.63-5.5,9.17-36.23,42.38-40.22,19.27,16.59-.47,25.47-19.34,33.9-32.23-10.44-21.87-13.57-91.17-43.5-38.95-1.76,3.5-5.57-9.94-2.6-12.83,34.19-31.07,47.56,5.31,55.06,35.05C336.63,64.59,346,45.92,349.3,29.37c-.21-1.39.29-2,1.52-1.73,8.61,3,14.63,10.79,10,20.65-5.72,16.13-16.1,33.27-25.29,48.52C343.44,113.28,355,136.27,376,134.18Z"/></g><path class="cls-9" d="M115,152.47l-1.75-2a5.48,5.48,0,0,1-3.12,1c-3.52,0-6.21-3.25-6.21-7.25s2.69-7.24,6.21-7.24,6.21,3.24,6.21,7.24a7.84,7.84,0,0,1-1.79,5.12l1.6,1.85Zm-1.72-4.65a6.23,6.23,0,0,0,1.1-3.66c0-3-1.78-5.34-4.25-5.34s-4.26,2.34-4.26,5.34,1.79,5.35,4.26,5.35A3.62,3.62,0,0,0,112,149l-1.65-1.92,1.15-1.34Z"/><path class="cls-9" d="M126.08,151.17l0-1.61a3.25,3.25,0,0,1-2.81,1.85,2.75,2.75,0,0,1-2.47-1.28,7.39,7.39,0,0,1-.77-3.83V141h1.76v5.08a5.88,5.88,0,0,0,.42,2.64,1.49,1.49,0,0,0,1.42.79,3,3,0,0,0,2.42-1.81V141h1.76v10.13Z"/><path class="cls-9" d="M131.88,139.2v-2.14h1.77v2.14Zm0,12V141h1.77v10.13Z"/><path class="cls-9" d="M145.2,151.17h-1.77v-15h1.77Z"/><path class="cls-9" d="M149.42,142.58l-.17-5.42h1.9l-.15,5.42Z"/><path class="cls-9" d="M160.41,151.17l0-1a3.12,3.12,0,0,1-5.62-1.87c0-2.54,1.95-3.34,3.84-3.34a7.72,7.72,0,0,1,1.7.22v-.3c0-1.48-.59-2.34-2-2.34a5.34,5.34,0,0,0-2.72.9l-.5-1.66a7.73,7.73,0,0,1,3.5-1c2.49,0,3.46,1.6,3.46,4.22v6.15Zm-.13-4.57a6.22,6.22,0,0,0-1.48-.18c-1,0-2.33.32-2.33,1.76a1.46,1.46,0,0,0,1.61,1.58,3.21,3.21,0,0,0,2.2-1.12Z"/><path class="cls-9" d="M176.27,138.08a2.15,2.15,0,0,0-1.13-.3,1.24,1.24,0,0,0-.93.32,2.71,2.71,0,0,0-.4,1.82V141h2.32v1.78h-2.32v8.35h-1.76v-8.35h-1V141h1v-1.3a5.31,5.31,0,0,1,.56-2.66,2.49,2.49,0,0,1,2.35-1.16,4.08,4.08,0,0,1,1.82.48Z"/><path class="cls-9" d="M184.18,151.17l-.05-1a3.12,3.12,0,0,1-5.63-1.87c0-2.54,1.95-3.34,3.84-3.34a7.65,7.65,0,0,1,1.7.22v-.3c0-1.48-.58-2.34-2-2.34a5.34,5.34,0,0,0-2.73.9l-.5-1.66a7.77,7.77,0,0,1,3.5-1c2.49,0,3.47,1.6,3.47,4.22v6.15ZM184,146.6a6.22,6.22,0,0,0-1.48-.18c-1,0-2.33.32-2.33,1.76a1.46,1.46,0,0,0,1.61,1.58,3.21,3.21,0,0,0,2.2-1.12Z"/><path class="cls-9" d="M189.84,139.2v-2.14h1.77v2.14Zm0,12V141h1.77v10.13Z"/><path class="cls-9" d="M197.59,142.82v4.4c0,.26,0,.5,0,.8,0,1,.33,1.53,1.1,1.53a1.85,1.85,0,0,0,1-.29l.51,1.63a3.35,3.35,0,0,1-1.73.48,2.36,2.36,0,0,1-2.39-1.73,6.75,6.75,0,0,1-.25-2v-4.82H194.7V141h1.13l.08-2.38h1.68V141H200v1.78Z"/><path class="cls-9" d="M210.6,151.17h-1.77v-15h1.77Z"/><path class="cls-9" d="M219.91,151.17l0-1a3.12,3.12,0,0,1-5.62-1.87c0-2.54,1.95-3.34,3.84-3.34a7.8,7.8,0,0,1,1.7.22v-.3c0-1.48-.59-2.34-2-2.34a5.34,5.34,0,0,0-2.72.9l-.5-1.66a7.73,7.73,0,0,1,3.5-1c2.49,0,3.46,1.6,3.46,4.22v6.15Zm-.13-4.57a6.22,6.22,0,0,0-1.48-.18c-1,0-2.33.32-2.33,1.76a1.46,1.46,0,0,0,1.61,1.58,3.23,3.23,0,0,0,2.2-1.12Z"/><path class="cls-9" d="M235.77,138.08a2.16,2.16,0,0,0-1.14-.3,1.21,1.21,0,0,0-.92.32,2.65,2.65,0,0,0-.4,1.82V141h2.32v1.78h-2.32v8.35h-1.76v-8.35h-1V141h1v-1.3a5.31,5.31,0,0,1,.56-2.66,2.49,2.49,0,0,1,2.35-1.16,4.08,4.08,0,0,1,1.82.48Z"/><path class="cls-9" d="M242.2,149.66a2.59,2.59,0,0,0,2.52-1.6L246,149a4,4,0,0,1-3.85,2.41c-2.72,0-4.32-2.31-4.32-5.29s1.89-5.32,4.32-5.32,4,2,4,4.7a7.76,7.76,0,0,1-.08,1.12h-6.48C239.7,148.28,240.66,149.66,242.2,149.66ZM243,135.6l1.77,3.36-1,.78-1.65-2.7-1.62,2.7-1.05-.78,1.8-3.36Zm-.87,6.92c-1.34,0-2.16,1.1-2.47,2.52h4.63A2.4,2.4,0,0,0,242.15,142.52Z"/><path class="cls-9" d="M251.45,142.82v4.4c0,.26,0,.5,0,.8.06,1,.33,1.53,1.1,1.53a1.83,1.83,0,0,0,1-.29l.51,1.63a3.35,3.35,0,0,1-1.73.48,2.34,2.34,0,0,1-2.38-1.73,6.43,6.43,0,0,1-.26-2v-4.82h-1.13V141h1.13l.09-2.38h1.68V141h2.38v1.78Z"/><path class="cls-9" d="M260.75,149.66a2.6,2.6,0,0,0,2.52-1.6l1.23.94a4,4,0,0,1-3.84,2.41c-2.73,0-4.32-2.31-4.32-5.29s1.88-5.32,4.32-5.32,4,2,4,4.7a6.52,6.52,0,0,1-.09,1.12h-6.48C258.24,148.28,259.2,149.66,260.75,149.66Zm-.06-7.14c-1.33,0-2.16,1.1-2.47,2.52h4.64A2.41,2.41,0,0,0,260.69,142.52Z"/><path class="cls-9" d="M276.05,146.82v-3.26c1.35-.54,2.71-1.16,2.71-2.92a1.78,1.78,0,0,0-1.66-1.9c-1.05,0-1.72.8-1.72,2.1v.22h-1.75v-.14c0-2.38,1.58-4,3.47-4a3.62,3.62,0,0,1,3.41,3.66,4.2,4.2,0,0,1-2.61,4.12v2.12Zm-.07,4.35v-2.49h2v2.49Z"/></g></g></g></g></svg>