<svg xmlns="http://www.w3.org/2000/svg" xmlns:xlink="http://www.w3.org/1999/xlink" viewBox="0 0 379.88 131.95"><defs><style>.cls-1{isolation:isolate;}.cls-2,.cls-6{fill:#f1f9fe;}.cls-3{fill:url(#Fondu_de_ciel);}.cls-4,.cls-8{fill:#3299cc;}.cls-4,.cls-5{mix-blend-mode:multiply;}.cls-4{opacity:0.3;}.cls-5{fill:#f2f2f2;}.cls-6{mix-blend-mode:screen;opacity:0.2;}.cls-7{fill:#fff;}.cls-9{fill:#7ccef4;}.cls-10{fill:none;stroke:#3299cc;stroke-linejoin:round;stroke-width:1.5px;}</style><linearGradient id="Fondu_de_ciel" x1="6.61" y1="62.54" x2="92.52" y2="62.54" gradientUnits="userSpaceOnUse"><stop offset="0" stop-color="#2581c4"/><stop offset="1" stop-color="#2581c4" stop-opacity="0"/></linearGradient></defs><g class="cls-1"><g id="Calque_2" data-name="Calque 2"><g id="VECTORISE"><g id="Water"><g id="Bierre"><g id="Verre_de_bierre" data-name="Verre de bierre"><path class="cls-2" d="M82.77,86.64c6.63-38.83,11.6-67.91,11.6-67.91,2.48.19,3.06-4.48-.44-4.48L59.25,8.33,24.58,2.4c-3.11-1.15-4.47,3.36-1.91,4.08,0,0-5,29.08-11.6,67.91S-1.72,105.77.82,114.92C5.55,126.61,70.55,137.74,79,128.27,84.41,120.49,76.13,125.48,82.77,86.64Z"/><path class="cls-3" d="M92.5,18.41l0-.3L24.59,6.5C21.39,23.31,12,87.68,6.61,101c0,0-1.39,9.49,34.16,15.56s37.38-3.34,37.38-3.34C77.44,99.17,90,35,92.5,18.41Z"/><path class="cls-4" d="M80.9,86.32c0-.42,11.66-67.85,11.62-68.21L85.83,17C80.12,40.64,80.69,73.46,70.3,97.63,54.41,117.77,19.76,113,10,89.23A105.07,105.07,0,0,1,6.61,101s-1.39,9.49,34.16,15.56,37.38-3.34,37.38-3.34C78.09,107.79,78.64,99.57,80.9,86.32Z"/><path class="cls-5" d="M82.77,86.64c6.63-38.83,11.6-67.91,11.6-67.91a2,2,0,0,0,2-1.85c.36-3.2-3.48-2.52-5.34-3.12-7.68,19.78-9.68,41.29-13.19,62.07-.86,13.22-.72,28.52-10.2,39-11.74,13.82-31.68,12-46.28,3.79-6.68-3.86-14.62-5.59-18.95-12.7-13.71,17.35,34.6,22.55,36.18,23.15,0,0,34.93,7,40.35-.79S76.13,125.48,82.77,86.64Z"/><path class="cls-6" d="M21.79,90.9c.4,2.24.66,4.67,2.47,6.17L38.42,14.19l-5.05-.87C33,17.14,19.21,89.67,21.79,90.9Z"/><path class="cls-6" d="M34.67,86.52c.43,2,.85,4.19,2.59,5.43A197.69,197.69,0,0,0,49.55,20l-5-.86C44.22,22.65,32.08,85.21,34.67,86.52Z"/><path class="cls-7" d="M89.75,34.53c0-.37,2.81-16.06,2.77-16.42L24.59,6.5l-2.8,16.42Z"/></g></g><g id="DrinX"><path class="cls-8" d="M154.07,15.27a28.61,28.61,0,0,1,14.05,3.23,25.46,25.46,0,0,1,9.25,8.57,29.62,29.62,0,0,1,4.36,12.24,40.76,40.76,0,0,1-.68,14.24,51.64,51.64,0,0,1-5.73,14.54,52.9,52.9,0,0,1-10.77,13.17,60.07,60.07,0,0,1-16,10.09,71,71,0,0,1-21.25,5.38,9.17,9.17,0,0,1-.73,2.55,1.79,1.79,0,0,1-1.72,1.17,8.63,8.63,0,0,1-2.83-.93,24.28,24.28,0,0,1-4-2.3,16.21,16.21,0,0,1-6.56-1.17,15,15,0,0,1-4.16-2.6,5.79,5.79,0,0,1-1.81-2.54c-.2-.75,0-1.13.49-1.13a6.49,6.49,0,0,1,2,.25,13.08,13.08,0,0,1,1.51.58,9.57,9.57,0,0,0,1.67.59,9.87,9.87,0,0,0,2.4.24,1.18,1.18,0,0,0,.34,0,.9.9,0,0,1,.34-.05c.39-1,1.19-2.92,2.4-5.63s2.66-5.91,4.36-9.6,3.55-7.76,5.58-12.24,4-9,5.87-13.61,3.67-9.13,5.34-13.61,3-8.59,4.06-12.38a71.78,71.78,0,0,0-11.45,7.1,67.47,67.47,0,0,0-10.14,9.3A50.08,50.08,0,0,0,113,51.25a24,24,0,0,0-2.79,10.82,12.43,12.43,0,0,0,.34,3.33,9.61,9.61,0,0,0,.69,1.81,5.4,5.4,0,0,0,.68,1,1.43,1.43,0,0,1,.34,1c0,.91-.62,1.21-1.86.88a9.83,9.83,0,0,1-4.06-2.59,19.84,19.84,0,0,1-4-5.93,21.51,21.51,0,0,1-1.82-9.3A14.08,14.08,0,0,1,102,46.55a35.62,35.62,0,0,1,4.31-6.85,61.92,61.92,0,0,1,6.71-7.2,66,66,0,0,1,8.71-6.75A73.79,73.79,0,0,1,132,20.17a57.72,57.72,0,0,1,11.46-3.72c.06-.53.11-1,.14-1.57s.05-1,.05-1.57a1.76,1.76,0,0,1,1-1.86,4.08,4.08,0,0,1,2.5,0,10.35,10.35,0,0,1,3.08,1.47,15.2,15.2,0,0,1,2.79,2.35ZM131.65,87.53a56.71,56.71,0,0,0,13.27-6.66,69.71,69.71,0,0,0,11.21-9.4,71,71,0,0,0,8.71-11A61.12,61.12,0,0,0,170.67,49,40,40,0,0,0,173.16,38a20.75,20.75,0,0,0-1.17-9.2,13,13,0,0,0-5.24-6.31q-3.67-2.36-9.74-2.35h0q-.58,1.86-2.4,6.61t-4.26,11.06q-2.44,6.31-5.19,13.56t-5.33,14.1L135,78.18Q132.82,84,131.65,87.53Z"/><path class="cls-8" d="M219.67,63.74c.52-.79,1-1.08,1.27-.88a1.86,1.86,0,0,1,.74,1.17,5.91,5.91,0,0,1,.19,1.91,3,3,0,0,1-.24,1.32c-.65,1-1.54,2.45-2.64,4.41s-2.4,4.09-3.87,6.41-3.05,4.7-4.75,7.15S207,89.93,205.23,92A36.28,36.28,0,0,1,200,97.12a10.15,10.15,0,0,1-4.85,2.35.93.93,0,0,0-.24,0,.9.9,0,0,1-.34,0,22.7,22.7,0,0,1-2.75-.29,16.48,16.48,0,0,1-4-1.18,10.1,10.1,0,0,1-3.52-2.45,5.28,5.28,0,0,1-1.28-4.21,20.06,20.06,0,0,1,1.76-6.26c1.05-2.42,2.16-4.83,3.33-7.25s2.26-4.66,3.23-6.75a14.82,14.82,0,0,0,1.57-4.6,4,4,0,0,0-.88-3.09,14.87,14.87,0,0,0-3-2.69c-.91,1.44-1.81,2.74-2.69,3.92s-1.58,2.12-2.1,2.84a.51.51,0,0,1-.79.19,2.64,2.64,0,0,1-.88-.93A4.18,4.18,0,0,1,182,65.5a1.65,1.65,0,0,1,.15-1.18,26,26,0,0,0,1.67-2.39c.58-1,1.27-2,2-3.09-1.11-.78-2.22-1.63-3.33-2.54a14.49,14.49,0,0,1-2.89-3.24,14.76,14.76,0,0,1-1.86-4.21,15.71,15.71,0,0,1-.34-5.48,14.89,14.89,0,0,1,2.4-7,27,27,0,0,1,4.85-5.63A23,23,0,0,1,190.35,27a12.18,12.18,0,0,1,4.84-1.32,4.17,4.17,0,0,1,3.58,2.2q1.41,2.2.93,7.49a32.76,32.76,0,0,1-2.21,9,82.28,82.28,0,0,1-4.16,9.06,30.52,30.52,0,0,0,4.07,2.69,34.64,34.64,0,0,1,4,2.6,11.91,11.91,0,0,1,2.94,3.13,7,7,0,0,1,.93,4.4,21.46,21.46,0,0,1-1.13,4.21c-.68,2-1.47,4.28-2.35,6.76s-1.79,5-2.74,7.54-1.75,4.76-2.4,6.66-.36,2.74.49,2.74a4.38,4.38,0,0,0,2.69-1.62,40.08,40.08,0,0,0,3.58-4.21c1.3-1.73,2.69-3.68,4.16-5.87s2.92-4.41,4.36-6.66,2.82-4.42,4.16-6.51S218.63,65.3,219.67,63.74ZM188.73,43a12,12,0,0,0,.39,4.45,9.92,9.92,0,0,0,1.77,3.38,68.07,68.07,0,0,0,3.76-8,26.89,26.89,0,0,0,1.91-7.63,9.72,9.72,0,0,0-.19-4.21,1.64,1.64,0,0,0-1.57-1.08c-.59,0-1.22.46-1.91,1.37A17.62,17.62,0,0,0,191,34.61a33.37,33.37,0,0,0-1.51,4.26A18.86,18.86,0,0,0,188.73,43Z"/><path class="cls-8" d="M248.36,63.64c.52-.78.93-1.08,1.22-.88a1.67,1.67,0,0,1,.59,1.17,7.52,7.52,0,0,1,.05,1.91,3.39,3.39,0,0,1-.3,1.32q-1,1.57-2.74,4.26c-1.17,1.8-2.54,3.77-4.11,5.93s-3.25,4.35-5,6.6a77.19,77.19,0,0,1-5.49,6.22,39.62,39.62,0,0,1-5.43,4.7A11.32,11.32,0,0,1,222.22,97h-.59a21,21,0,0,1-2.74-.3,17.6,17.6,0,0,1-4-1.12,9.93,9.93,0,0,1-3.52-2.4A5.31,5.31,0,0,1,210.07,89a20.27,20.27,0,0,1,1.23-5q1.13-3.23,2.74-7.19c1.08-2.65,2.22-5.37,3.43-8.18s2.33-5.45,3.37-7.93,1.93-4.63,2.65-6.46a17.26,17.26,0,0,0,1.17-3.72,1.57,1.57,0,0,1,1.86-1.67,8.12,8.12,0,0,1,3.72,1.28A16.4,16.4,0,0,1,233.82,53a4.46,4.46,0,0,1,1.52,3.18,18.13,18.13,0,0,1-.79,3c-.46,1.41-1,3.07-1.71,5s-1.45,4-2.3,6.26-1.7,4.49-2.55,6.71-1.65,4.36-2.4,6.41-1.38,3.84-1.91,5.34c-.52,1.76-.36,2.64.49,2.64A5.12,5.12,0,0,0,227,90.12a35.79,35.79,0,0,0,3.92-3.77q2.15-2.34,4.55-5.28t4.7-6.07l4.46-6.07C246.07,67,247.31,65.2,248.36,63.64ZM235.14,43a10.27,10.27,0,0,1-3.13-.49,9.55,9.55,0,0,1-2.79-1.37,7.22,7.22,0,0,1-2-2.06,4,4,0,0,1-.64-2.44A10.1,10.1,0,0,1,228,32.55a16.46,16.46,0,0,1,3.09-3.82,19.48,19.48,0,0,1,4-2.84,8.6,8.6,0,0,1,4.06-1.12,6.45,6.45,0,0,1,4.7,1.71,5.89,5.89,0,0,1,1.57,4.85,13.91,13.91,0,0,1-1,3.57,17.26,17.26,0,0,1-2.2,3.82,13.66,13.66,0,0,1-3.18,3A6.84,6.84,0,0,1,235.14,43Z"/><path class="cls-8" d="M303.78,63.83c.52-.78.94-1.07,1.27-.88a1.91,1.91,0,0,1,.73,1.18A6.2,6.2,0,0,1,306,66a3.2,3.2,0,0,1-.25,1.32l-2.79,4.21c-1.21,1.83-2.61,3.83-4.21,6s-3.31,4.44-5.14,6.76-3.67,4.44-5.53,6.36a43.84,43.84,0,0,1-5.53,4.9,12.61,12.61,0,0,1-5,2.4,4.93,4.93,0,0,1-2.65-.2,12.87,12.87,0,0,1-3.67-1.66,11.58,11.58,0,0,1-3.13-3A6.35,6.35,0,0,1,267,88.8a19.39,19.39,0,0,1,1.37-5.29c.85-2.28,1.84-4.79,3-7.53s2.36-5.6,3.67-8.57,2.48-5.79,3.52-8.47q-1.86,2-4.45,4.89t-5.48,6.27q-2.9,3.33-5.83,6.8t-5.48,6.61c-1.7,2.09-3.15,4-4.36,5.68a28.41,28.41,0,0,0-2.5,4,6.77,6.77,0,0,0,.1,2.05,1.28,1.28,0,0,1-.49,1.37c-.39.33-1.21.36-2.45.1a12.73,12.73,0,0,1-7.24-4.65,6.42,6.42,0,0,1-1.27-4.55,17,17,0,0,1,1.17-4.7q1.08-2.94,2.64-6.46l3.33-7.44c1.18-2.61,2.27-5.13,3.28-7.54s1.88-4.65,2.6-6.71a23,23,0,0,0,1.27-5A1.57,1.57,0,0,1,255.21,48,8.46,8.46,0,0,1,259,49.25a15.06,15.06,0,0,1,3.57,2.88A4.45,4.45,0,0,1,264,55.32a19.35,19.35,0,0,1-.83,3.18c-.49,1.53-1.12,3.33-1.91,5.38s-1.65,4.3-2.59,6.71-1.88,4.8-2.79,7.15q1.36-1.86,3.47-4.55l4.51-5.78q2.4-3.09,5-6.27T274,55.22q2.44-2.74,4.55-4.75a17.68,17.68,0,0,1,3.58-2.79,2.12,2.12,0,0,1,.78-.39,1,1,0,0,1,.49-.1,1.92,1.92,0,0,1,.78.1,8.6,8.6,0,0,1,2.65,1,14,14,0,0,1,2.69,1.86,12.23,12.23,0,0,1,2,2.25,3.45,3.45,0,0,1,.68,2.25,18.19,18.19,0,0,1-.83,3.13q-.74,2.27-1.86,5.44T287,70.05q-1.41,3.67-2.79,7.35c-.91,2.44-1.79,4.78-2.64,7s-1.53,4.11-2.06,5.67-.19,2.16.59,2.16q1.56,0,4.55-3.13t6.47-7.59q3.47-4.45,6.85-9.3Z"/><path class="cls-9" d="M373.58,107.34c19.68-8.67-16.84,38.07-49.58-23.63-5.5,9.17-36.23,42.38-40.22,19.27,16.59-.47,25.47-19.34,33.91-32.23-10.45-21.87-13.57-91.17-43.51-38.95-1.76,3.5-5.56-9.94-2.6-12.83C305.77-12.1,319.14,24.28,326.64,54c7.56-16.27,16.94-34.94,20.24-51.49-.22-1.39.29-2,1.52-1.73,8.6,3,14.62,10.79,10,20.65-5.72,16.13-16.1,33.27-25.28,48.52C341,86.44,352.6,109.43,373.58,107.34Z"/><path class="cls-10" d="M373.58,107.34c19.68-8.67-16.84,38.07-49.58-23.63-5.5,9.17-36.23,42.38-40.22,19.27,16.59-.47,25.47-19.34,33.91-32.23-10.45-21.87-13.57-91.17-43.51-38.95-1.76,3.5-5.56-9.94-2.6-12.83C305.77-12.1,319.14,24.28,326.64,54c7.56-16.27,16.94-34.94,20.24-51.49-.22-1.39.29-2,1.52-1.73,8.6,3,14.62,10.79,10,20.65-5.72,16.13-16.1,33.27-25.28,48.52C341,86.44,352.6,109.43,373.58,107.34Z"/></g><path class="cls-9" d="M102,124.33v-14h1.77v12.12h4.93v1.89Z"/><path class="cls-9" d="M111.25,110.32h1.88L112,115.44h-1.62Z"/><path class="cls-9" d="M119.71,122.82a2.48,2.48,0,0,0,2.42-1.59l1.19.93a3.85,3.85,0,0,1-3.69,2.41c-2.62,0-4.15-2.3-4.15-5.29s1.81-5.32,4.15-5.32,3.87,2,3.87,4.7a7.76,7.76,0,0,1-.08,1.12h-6.23C117.31,121.44,118.23,122.82,119.71,122.82Zm0-7.14c-1.28,0-2.07,1.1-2.37,2.52h4.45A2.37,2.37,0,0,0,119.66,115.68Z"/><path class="cls-9" d="M131.78,124.33l-.05-1a2.76,2.76,0,0,1-2.44,1.26,2.85,2.85,0,0,1-3-3.13c0-2.54,1.88-3.34,3.69-3.34a7.12,7.12,0,0,1,1.63.22V118c0-1.48-.56-2.34-1.89-2.34a5,5,0,0,0-2.62.9l-.48-1.66a7.23,7.23,0,0,1,3.36-1c2.39,0,3.32,1.6,3.32,4.22v6.15Zm-.13-4.57a5.78,5.78,0,0,0-1.42-.18c-1,0-2.24.32-2.24,1.77a1.44,1.44,0,0,0,1.55,1.58,3.08,3.08,0,0,0,2.11-1.12Z"/><path class="cls-9" d="M143,124.33l-.05-1.6a3.12,3.12,0,0,1-2.7,1.84,2.63,2.63,0,0,1-2.37-1.28,7.71,7.71,0,0,1-.74-3.83V114.2h1.7v5.08a6.22,6.22,0,0,0,.39,2.65,1.45,1.45,0,0,0,1.37.78,2.9,2.9,0,0,0,2.32-1.81v-6.7h1.7v10.13Z"/><path class="cls-9" d="M160.25,123.51a3.67,3.67,0,0,1-2.65,1.06c-2.41,0-4.27-2.13-4.27-5.31,0-3,1.88-5.3,4.33-5.3a3.68,3.68,0,0,1,2.5,1l-.82,1.62a2.53,2.53,0,0,0-1.68-.72c-1.45,0-2.6,1.54-2.6,3.44,0,2.06,1.22,3.45,2.6,3.45a2.67,2.67,0,0,0,1.73-.73Z"/><path class="cls-9" d="M164.66,110.32h1.88l-1.12,5.12H163.8Z"/><path class="cls-9" d="M173.12,122.82a2.49,2.49,0,0,0,2.42-1.59l1.19.93a3.85,3.85,0,0,1-3.69,2.41c-2.62,0-4.15-2.3-4.15-5.29S170.7,114,173,114s3.87,2,3.87,4.7a9.51,9.51,0,0,1-.08,1.12H170.6C170.72,121.44,171.64,122.82,173.12,122.82Zm-.05-7.14c-1.28,0-2.07,1.1-2.37,2.52h4.45A2.37,2.37,0,0,0,173.07,115.68Z"/><path class="cls-9" d="M184.38,116.42a2.43,2.43,0,0,0-1.64-.78,1.11,1.11,0,0,0-1.14,1.2c0,.74.76,1.1,1.53,1.48,1.09.52,2.44,1.24,2.44,3a2.91,2.91,0,0,1-3.06,3.21,3.55,3.55,0,0,1-3-1.63l1.12-1.17a2.38,2.38,0,0,0,1.86,1.09,1.29,1.29,0,0,0,1.38-1.38c0-.78-.76-1.14-1.58-1.54C181.2,119.4,180,118.8,180,117a2.74,2.74,0,0,1,2.77-3,3.54,3.54,0,0,1,2.63,1.16Z"/><path class="cls-9" d="M190.85,116v4.4c0,.27,0,.5,0,.81,0,1,.31,1.52,1,1.52a1.79,1.79,0,0,0,.94-.28l.49,1.62a3.1,3.1,0,0,1-1.66.48,2.27,2.27,0,0,1-2.29-1.72,6.88,6.88,0,0,1-.24-2V116h-1.09V114.2h1.09l.08-2.38h1.61v2.38h2.29V116Z"/><path class="cls-9" d="M205.21,122.82a2.49,2.49,0,0,0,2.42-1.59l1.18.93a3.83,3.83,0,0,1-3.68,2.41c-2.62,0-4.15-2.3-4.15-5.29s1.81-5.32,4.15-5.32,3.87,2,3.87,4.7a7.7,7.7,0,0,1-.09,1.12h-6.22C202.81,121.44,203.73,122.82,205.21,122.82Zm-.05-7.14c-1.28,0-2.07,1.1-2.37,2.52h4.44A2.36,2.36,0,0,0,205.16,115.68Z"/><path class="cls-9" d="M216.47,116.42a2.43,2.43,0,0,0-1.65-.78,1.11,1.11,0,0,0-1.13,1.2c0,.74.76,1.1,1.53,1.48,1.09.52,2.44,1.24,2.44,3a2.92,2.92,0,0,1-3.07,3.21,3.55,3.55,0,0,1-3-1.63l1.12-1.17a2.38,2.38,0,0,0,1.86,1.09,1.29,1.29,0,0,0,1.38-1.38c0-.78-.76-1.14-1.58-1.54-1.09-.54-2.32-1.14-2.32-2.94a2.74,2.74,0,0,1,2.76-3,3.55,3.55,0,0,1,2.64,1.16Z"/><path class="cls-9" d="M225.33,116.42a2.45,2.45,0,0,0-1.65-.78,1.11,1.11,0,0,0-1.13,1.2c0,.74.75,1.1,1.53,1.48,1.08.52,2.43,1.24,2.43,3a2.91,2.91,0,0,1-3.06,3.21,3.58,3.58,0,0,1-3-1.63l1.12-1.17a2.41,2.41,0,0,0,1.86,1.09,1.3,1.3,0,0,0,1.39-1.38c0-.78-.76-1.14-1.58-1.54-1.09-.54-2.32-1.14-2.32-2.94a2.74,2.74,0,0,1,2.76-3,3.56,3.56,0,0,1,2.64,1.16Z"/><path class="cls-9" d="M233.58,122.82a2.49,2.49,0,0,0,2.42-1.59l1.18.93a3.83,3.83,0,0,1-3.69,2.41c-2.61,0-4.15-2.3-4.15-5.29s1.82-5.32,4.15-5.32,3.87,2,3.87,4.7a7.76,7.76,0,0,1-.08,1.12h-6.22C231.17,121.44,232.09,122.82,233.58,122.82Zm-.05-7.14c-1.29,0-2.08,1.1-2.37,2.52h4.44A2.36,2.36,0,0,0,233.53,115.68Z"/><path class="cls-9" d="M242.27,114.2l0,1.6A3.12,3.12,0,0,1,245,114a2.62,2.62,0,0,1,2.37,1.28,7.54,7.54,0,0,1,.74,3.82v5.27h-1.7v-5.09a6.17,6.17,0,0,0-.39-2.64,1.43,1.43,0,0,0-1.37-.78,2.91,2.91,0,0,0-2.32,1.8v6.71h-1.69V114.2Z"/><path class="cls-9" d="M253.79,116v4.4c0,.27,0,.5,0,.81.05,1,.31,1.52,1.05,1.52a1.77,1.77,0,0,0,.94-.28l.5,1.62a3.16,3.16,0,0,1-1.67.48,2.27,2.27,0,0,1-2.29-1.72,6.88,6.88,0,0,1-.24-2V116H251V114.2h1.09l.08-2.38h1.61v2.38h2.29V116Z"/><path class="cls-9" d="M259.14,112.36v-2.14h1.7v2.14Zm0,12V114.2h1.7v10.13Z"/><path class="cls-9" d="M268.36,122.82a2.48,2.48,0,0,0,2.42-1.59l1.19.93a3.85,3.85,0,0,1-3.69,2.41c-2.62,0-4.15-2.3-4.15-5.29s1.81-5.32,4.15-5.32,3.87,2,3.87,4.7a7.76,7.76,0,0,1-.08,1.12h-6.23C266,121.44,266.88,122.82,268.36,122.82Zm-.05-7.14c-1.28,0-2.07,1.1-2.37,2.52h4.45A2.37,2.37,0,0,0,268.31,115.68Z"/><path class="cls-9" d="M277.14,124.33h-1.7v-15h1.7Z"/></g></g></g></g></svg>